<svg width="1600" height="1000" viewBox="0 0 1600 1000" fill="none" xmlns="http://www.w3.org/2000/svg">
  <defs>
    <linearGradient id="bg" x1="160" y1="60" x2="1400" y2="960" gradientUnits="userSpaceOnUse">
      <stop stop-color="#EFF7F0"/>
      <stop offset="1" stop-color="#DDEEE1"/>
    </linearGradient>
    <linearGradient id="hero" x1="0" y1="0" x2="1" y2="1">
      <stop stop-color="#1C6A52"/>
      <stop offset="1" stop-color="#27493D"/>
    </linearGradient>
    <linearGradient id="card1" x1="0" y1="0" x2="1" y2="1">
      <stop stop-color="#F7FBF8"/>
      <stop offset="1" stop-color="#EFF6F2"/>
    </linearGradient>
    <filter id="shadow" x="-20%" y="-20%" width="140%" height="140%">
      <feDropShadow dx="0" dy="16" stdDeviation="20" flood-color="#6B8A77" flood-opacity="0.18"/>
    </filter>
  </defs>

  <rect width="1600" height="1000" fill="url(#bg)"/>
  <circle cx="1320" cy="140" r="230" fill="#C9E3CF" fill-opacity="0.55"/>
  <circle cx="220" cy="880" r="180" fill="#CFE7D2" fill-opacity="0.8"/>

  <rect x="56" y="36" width="1488" height="928" rx="36" fill="#F8FCF9" filter="url(#shadow)"/>

  <rect x="90" y="68" width="1420" height="88" rx="28" fill="#FFFFFF"/>
  <text x="126" y="107" font-family="Arial, sans-serif" font-size="16" font-weight="700" letter-spacing="3" fill="#2F7A60">LEAD GENERATOR</text>
  <text x="126" y="136" font-family="Arial, sans-serif" font-size="34" font-weight="700" fill="#14221A">Modern CRM Dashboard Concept</text>

  <rect x="1160" y="86" width="110" height="48" rx="24" fill="#F3F7F4" stroke="#D9E6DD"/>
  <text x="1190" y="116" font-family="Arial, sans-serif" font-size="18" font-weight="700" fill="#223429">Settings</text>
  <rect x="1288" y="86" width="190" height="48" rx="24" fill="#183F31"/>
  <text x="1334" y="116" font-family="Arial, sans-serif" font-size="18" font-weight="700" fill="#FFFFFF">sales@company.com</text>

  <rect x="90" y="182" width="1420" height="128" rx="30" fill="url(#hero)"/>
  <text x="128" y="224" font-family="Arial, sans-serif" font-size="15" font-weight="700" letter-spacing="2.5" fill="#A8D7BE">LIVE SNAPSHOT</text>
  <text x="128" y="264" font-family="Arial, sans-serif" font-size="36" font-weight="700" fill="#FFFFFF">A cleaner lead workflow for faster follow-up</text>
  <text x="128" y="294" font-family="Arial, sans-serif" font-size="17" fill="#D5EBDD">Built around quick qualification, sender control, and a stronger sales overview.</text>

  <g>
    <rect x="900" y="204" width="132" height="82" rx="22" fill="#FFFFFF" fill-opacity="0.16"/>
    <text x="930" y="232" font-family="Arial, sans-serif" font-size="14" font-weight="700" fill="#CDE7D6">TOTAL LEADS</text>
    <text x="934" y="273" font-family="Arial, sans-serif" font-size="36" font-weight="700" fill="#FFFFFF">184</text>

    <rect x="1050" y="204" width="132" height="82" rx="22" fill="#FFFFFF" fill-opacity="0.16"/>
    <text x="1078" y="232" font-family="Arial, sans-serif" font-size="14" font-weight="700" fill="#CDE7D6">QUALIFIED</text>
    <text x="1094" y="273" font-family="Arial, sans-serif" font-size="36" font-weight="700" fill="#FFFFFF">62</text>

    <rect x="1200" y="204" width="132" height="82" rx="22" fill="#FFFFFF" fill-opacity="0.16"/>
    <text x="1224" y="232" font-family="Arial, sans-serif" font-size="14" font-weight="700" fill="#CDE7D6">SENT</text>
    <text x="1248" y="273" font-family="Arial, sans-serif" font-size="36" font-weight="700" fill="#FFFFFF">39</text>

    <rect x="1350" y="204" width="132" height="82" rx="22" fill="#FFFFFF" fill-opacity="0.16"/>
    <text x="1370" y="232" font-family="Arial, sans-serif" font-size="14" font-weight="700" fill="#CDE7D6">PRIORITY</text>
    <text x="1395" y="273" font-family="Arial, sans-serif" font-size="36" font-weight="700" fill="#FFFFFF">84</text>
  </g>

  <rect x="90" y="338" width="310" height="584" rx="30" fill="url(#card1)" stroke="#DDEAE1"/>
  <text x="120" y="380" font-family="Arial, sans-serif" font-size="14" font-weight="700" letter-spacing="2.5" fill="#2F7A60">LEAD INTAKE</text>
  <text x="120" y="412" font-family="Arial, sans-serif" font-size="30" font-weight="700" fill="#18251D">Capture a new lead</text>

  <g fill="#FFFFFF" stroke="#D7E4DB">
    <rect x="120" y="442" width="250" height="58" rx="18"/>
    <rect x="120" y="518" width="250" height="58" rx="18"/>
    <rect x="120" y="594" width="250" height="58" rx="18"/>
    <rect x="120" y="670" width="250" height="58" rx="18"/>
    <rect x="120" y="746" width="250" height="84" rx="18"/>
  </g>
  <g font-family="Arial, sans-serif" font-size="13" font-weight="700" fill="#5A6B61">
    <text x="134" y="462">Company</text>
    <text x="134" y="538">Contact Name</text>
    <text x="134" y="614">Sender / Email</text>
    <text x="134" y="690">Lead Source</text>
    <text x="134" y="766">Notes</text>
  </g>
  <rect x="120" y="850" width="250" height="52" rx="18" fill="#183F31"/>
  <text x="206" y="882" font-family="Arial, sans-serif" font-size="18" font-weight="700" fill="#FFFFFF">Save Lead</text>

  <rect x="424" y="338" width="726" height="584" rx="30" fill="#FFFFFF" stroke="#DDEAE1"/>
  <text x="456" y="380" font-family="Arial, sans-serif" font-size="14" font-weight="700" letter-spacing="2.5" fill="#2F7A60">LEAD QUEUE</text>
  <text x="456" y="412" font-family="Arial, sans-serif" font-size="30" font-weight="700" fill="#18251D">Pipeline and activity focus</text>

  <rect x="456" y="440" width="662" height="54" rx="18" fill="#F7FBF8" stroke="#E0ECE4"/>
  <text x="486" y="474" font-family="Arial, sans-serif" font-size="16" fill="#708178">Search company, product, source or region</text>

  <g>
    <rect x="456" y="522" width="662" height="86" rx="22" fill="#F7FBF8" stroke="#DCE9E1"/>
    <rect x="472" y="540" width="110" height="32" rx="16" fill="#E9F5EC"/>
    <text x="501" y="561" font-family="Arial, sans-serif" font-size="14" font-weight="700" fill="#2B745A">Priority</text>
    <rect x="590" y="540" width="118" height="32" rx="16" fill="#EDF3FF"/>
    <text x="618" y="561" font-family="Arial, sans-serif" font-size="14" font-weight="700" fill="#3C5EA8">CRM Logged</text>
    <text x="472" y="592" font-family="Arial, sans-serif" font-size="24" font-weight="700" fill="#17241C">Demo 12 Precision Works</text>
    <text x="830" y="592" font-family="Arial, sans-serif" font-size="16" fill="#577264">AutoCount Accounting</text>
  </g>

  <g>
    <rect x="456" y="624" width="662" height="86" rx="22" fill="#FFFFFF" stroke="#E3ECE6"/>
    <rect x="472" y="642" width="108" height="32" rx="16" fill="#F5F9F6"/>
    <text x="500" y="663" font-family="Arial, sans-serif" font-size="14" font-weight="700" fill="#617266">LinkedIn</text>
    <rect x="588" y="642" width="102" height="32" rx="16" fill="#EEF8F1"/>
    <text x="614" y="663" font-family="Arial, sans-serif" font-size="14" font-weight="700" fill="#2E775D">Email Sent</text>
    <text x="472" y="694" font-family="Arial, sans-serif" font-size="24" font-weight="700" fill="#17241C">Demo 11 Fashion House</text>
    <text x="834" y="694" font-family="Arial, sans-serif" font-size="16" fill="#577264">AutoCount POS</text>
  </g>

  <g>
    <rect x="456" y="726" width="662" height="86" rx="22" fill="#FFFFFF" stroke="#E3ECE6"/>
    <rect x="472" y="744" width="116" height="32" rx="16" fill="#FFF4DF"/>
    <text x="496" y="765" font-family="Arial, sans-serif" font-size="14" font-weight="700" fill="#9C6D1C">Google Maps</text>
    <text x="472" y="796" font-family="Arial, sans-serif" font-size="24" font-weight="700" fill="#17241C">Demo 10 Fresh Hub</text>
    <text x="814" y="796" font-family="Arial, sans-serif" font-size="16" fill="#577264">Cubehous WMS</text>
  </g>

  <rect x="456" y="840" width="146" height="48" rx="18" fill="#F2F6F3" stroke="#D9E6DD"/>
  <text x="496" y="870" font-family="Arial, sans-serif" font-size="16" font-weight="700" fill="#284134">Previous</text>
  <text x="730" y="871" font-family="Arial, sans-serif" font-size="16" font-weight="700" fill="#728076">Page 1 of 8</text>
  <rect x="972" y="840" width="146" height="48" rx="18" fill="#183F31"/>
  <text x="1020" y="870" font-family="Arial, sans-serif" font-size="16" font-weight="700" fill="#FFFFFF">Next</text>

  <rect x="1174" y="338" width="336" height="584" rx="30" fill="#FFFFFF" stroke="#DDEAE1"/>
  <text x="1206" y="380" font-family="Arial, sans-serif" font-size="14" font-weight="700" letter-spacing="2.5" fill="#2F7A60">EMAIL + TOOLS</text>
  <text x="1206" y="412" font-family="Arial, sans-serif" font-size="30" font-weight="700" fill="#18251D">Review and export</text>

  <rect x="1206" y="442" width="272" height="54" rx="18" fill="#183F31"/>
  <text x="1268" y="476" font-family="Arial, sans-serif" font-size="18" font-weight="700" fill="#FFFFFF">Sender: sales@company.com</text>

  <rect x="1206" y="522" width="272" height="158" rx="22" fill="#F7FBF8" stroke="#DCE9E1"/>
  <text x="1230" y="552" font-family="Arial, sans-serif" font-size="14" font-weight="700" fill="#2F7A60">EDITABLE EMAIL DRAFT</text>
  <text x="1230" y="586" font-family="Arial, sans-serif" font-size="18" font-weight="700" fill="#1B2920">Subject: AutoCount idea for Demo 12</text>
  <text x="1230" y="622" font-family="Arial, sans-serif" font-size="15" fill="#55685D">Hi Melissa,</text>
  <text x="1230" y="648" font-family="Arial, sans-serif" font-size="15" fill="#55685D">I came across your business in Petaling Jaya...</text>

  <rect x="1206" y="700" width="272" height="90" rx="22" fill="#FFFFFF" stroke="#DDEAE1"/>
  <text x="1230" y="730" font-family="Arial, sans-serif" font-size="14" font-weight="700" fill="#2F7A60">EXPORT PANEL</text>
  <text x="1230" y="760" font-family="Arial, sans-serif" font-size="15" fill="#55685D">Lead Queue CSV</text>
  <text x="1230" y="784" font-family="Arial, sans-serif" font-size="15" fill="#55685D">Email Activity CSV</text>

  <rect x="1206" y="814" width="128" height="48" rx="18" fill="#F2F6F3" stroke="#D9E6DD"/>
  <text x="1240" y="844" font-family="Arial, sans-serif" font-size="16" font-weight="700" fill="#284134">Timeline</text>
  <rect x="1350" y="814" width="128" height="48" rx="18" fill="#EDF5F0" stroke="#D9E6DD"/>
  <text x="1383" y="844" font-family="Arial, sans-serif" font-size="16" font-weight="700" fill="#284134">Settings</text>
</svg>
