<svg width="1600" height="1000" viewBox="0 0 1600 1000" fill="none" xmlns="http://www.w3.org/2000/svg">
  <defs>
    <linearGradient id="bg" x1="220" y1="40" x2="1380" y2="980" gradientUnits="userSpaceOnUse">
      <stop stop-color="#EEF7F2"/>
      <stop offset="1" stop-color="#D9ECE1"/>
    </linearGradient>
    <linearGradient id="hero" x1="0" y1="0" x2="1" y2="1">
      <stop stop-color="#1A6E56"/>
      <stop offset="1" stop-color="#2E4A40"/>
    </linearGradient>
    <filter id="shadow" x="-20%" y="-20%" width="140%" height="140%">
      <feDropShadow dx="0" dy="20" stdDeviation="26" flood-color="#507463" flood-opacity="0.18"/>
    </filter>
  </defs>
  <rect width="1600" height="1000" fill="url(#bg)"/>
  <circle cx="1310" cy="130" r="220" fill="#CFE7D8"/>
  <circle cx="230" cy="860" r="180" fill="#D6EADF"/>
  <rect x="54" y="36" width="1492" height="928" rx="38" fill="#F9FCFA" filter="url(#shadow)"/>
  <rect x="90" y="72" width="1420" height="84" rx="28" fill="#FFFFFF"/>
  <text x="126" y="108" font-family="Arial, sans-serif" font-size="16" font-weight="700" letter-spacing="3" fill="#2C7B61">MODERN SAAS</text>
  <text x="126" y="136" font-family="Arial, sans-serif" font-size="34" font-weight="700" fill="#16231C">Lead Generator Redesign Direction</text>
  <rect x="1180" y="90" width="120" height="46" rx="23" fill="#F3F7F4" stroke="#D8E5DD"/>
  <text x="1211" y="119" font-family="Arial, sans-serif" font-size="18" font-weight="700" fill="#244034">Settings</text>
  <rect x="1318" y="90" width="160" height="46" rx="23" fill="#1D4334"/>
  <text x="1368" y="119" font-family="Arial, sans-serif" font-size="18" font-weight="700" fill="#FFFFFF">User Login</text>

  <rect x="90" y="186" width="1420" height="136" rx="30" fill="url(#hero)"/>
  <text x="126" y="226" font-family="Arial, sans-serif" font-size="15" font-weight="700" letter-spacing="2.6" fill="#B8E0CB">LIVE SNAPSHOT</text>
  <text x="126" y="268" font-family="Arial, sans-serif" font-size="38" font-weight="700" fill="#FFFFFF">Bright, premium, and easy to scale</text>
  <text x="126" y="300" font-family="Arial, sans-serif" font-size="17" fill="#D6EBDF">Horizontal metrics, soft green depth, strong hierarchy, and a simplified workflow shell.</text>
  <g>
    <rect x="860" y="208" width="142" height="90" rx="22" fill="#FFFFFF" fill-opacity="0.14"/>
    <rect x="1018" y="208" width="142" height="90" rx="22" fill="#FFFFFF" fill-opacity="0.14"/>
    <rect x="1176" y="208" width="142" height="90" rx="22" fill="#FFFFFF" fill-opacity="0.14"/>
    <rect x="1334" y="208" width="142" height="90" rx="22" fill="#FFFFFF" fill-opacity="0.14"/>
    <text x="893" y="236" font-family="Arial, sans-serif" font-size="13" font-weight="700" fill="#D6EBDF">TOTAL LEADS</text>
    <text x="912" y="279" font-family="Arial, sans-serif" font-size="36" font-weight="700" fill="#FFFFFF">184</text>
    <text x="1052" y="236" font-family="Arial, sans-serif" font-size="13" font-weight="700" fill="#D6EBDF">QUALIFIED</text>
    <text x="1071" y="279" font-family="Arial, sans-serif" font-size="36" font-weight="700" fill="#FFFFFF">62</text>
    <text x="1216" y="236" font-family="Arial, sans-serif" font-size="13" font-weight="700" fill="#D6EBDF">EMAILS</text>
    <text x="1229" y="279" font-family="Arial, sans-serif" font-size="36" font-weight="700" fill="#FFFFFF">39</text>
    <text x="1367" y="236" font-family="Arial, sans-serif" font-size="13" font-weight="700" fill="#D6EBDF">PRIORITY</text>
    <text x="1388" y="279" font-family="Arial, sans-serif" font-size="36" font-weight="700" fill="#FFFFFF">84</text>
  </g>

  <rect x="90" y="350" width="1420" height="72" rx="26" fill="#FFFFFF"/>
  <rect x="114" y="370" width="318" height="34" rx="17" fill="#EAF6EE"/>
  <rect x="446" y="370" width="318" height="34" rx="17" fill="#F5F8F6"/>
  <rect x="778" y="370" width="318" height="34" rx="17" fill="#F5F8F6"/>
  <rect x="1110" y="370" width="376" height="34" rx="17" fill="#F3F7F4"/>
  <text x="188" y="392" font-family="Arial, sans-serif" font-size="16" font-weight="700" fill="#286E57">Lead Intake</text>
  <text x="526" y="392" font-family="Arial, sans-serif" font-size="16" font-weight="700" fill="#50645A">Lead Queue</text>
  <text x="864" y="392" font-family="Arial, sans-serif" font-size="16" font-weight="700" fill="#50645A">Export</text>
  <text x="1214" y="392" font-family="Arial, sans-serif" font-size="16" fill="#72837A">Search leads, sender email, activity...</text>

  <rect x="90" y="444" width="364" height="478" rx="30" fill="#FFFFFF"/>
  <text x="122" y="486" font-family="Arial, sans-serif" font-size="14" font-weight="700" letter-spacing="2.4" fill="#2D7A60">LEAD INTAKE</text>
  <text x="122" y="518" font-family="Arial, sans-serif" font-size="30" font-weight="700" fill="#18251D">Capture a lead in one pass</text>
  <g fill="#F7FBF8" stroke="#DDE8E0">
    <rect x="122" y="548" width="300" height="58" rx="18"/>
    <rect x="122" y="620" width="300" height="58" rx="18"/>
    <rect x="122" y="692" width="300" height="58" rx="18"/>
    <rect x="122" y="764" width="300" height="80" rx="18"/>
  </g>
  <text x="136" y="570" font-family="Arial, sans-serif" font-size="13" font-weight="700" fill="#617066">Company / Contact</text>
  <text x="136" y="642" font-family="Arial, sans-serif" font-size="13" font-weight="700" fill="#617066">Region / Source</text>
  <text x="136" y="714" font-family="Arial, sans-serif" font-size="13" font-weight="700" fill="#617066">Product Fit / Pain Point</text>
  <text x="136" y="786" font-family="Arial, sans-serif" font-size="13" font-weight="700" fill="#617066">Notes</text>
  <rect x="122" y="862" width="300" height="42" rx="16" fill="#1D4334"/>
  <text x="231" y="889" font-family="Arial, sans-serif" font-size="16" font-weight="700" fill="#FFFFFF">Save Lead</text>

  <rect x="474" y="444" width="676" height="478" rx="30" fill="#FFFFFF"/>
  <text x="508" y="486" font-family="Arial, sans-serif" font-size="14" font-weight="700" letter-spacing="2.4" fill="#2D7A60">LEAD QUEUE</text>
  <text x="508" y="518" font-family="Arial, sans-serif" font-size="30" font-weight="700" fill="#18251D">Action-oriented lead pipeline</text>
  <rect x="508" y="548" width="608" height="56" rx="18" fill="#F7FBF8" stroke="#DDE8E0"/>
  <text x="534" y="583" font-family="Arial, sans-serif" font-size="16" fill="#708178">Search company, source, area, or recommended product</text>
  <g>
    <rect x="508" y="628" width="608" height="84" rx="22" fill="#EFF8F2" stroke="#DCE8E0"/>
    <text x="532" y="659" font-family="Arial, sans-serif" font-size="14" font-weight="700" fill="#2D7A60">Priority • Email Sent • CRM Logged</text>
    <text x="532" y="695" font-family="Arial, sans-serif" font-size="24" font-weight="700" fill="#17241C">Demo 12 Precision Works</text>
    <text x="898" y="695" font-family="Arial, sans-serif" font-size="16" fill="#5A6F64">AutoCount Accounting</text>
    <rect x="1012" y="646" width="82" height="28" rx="14" fill="#FFFFFF"/>
    <text x="1034" y="665" font-family="Arial, sans-serif" font-size="13" font-weight="700" fill="#345A49">View</text>
  </g>
  <g>
    <rect x="508" y="728" width="608" height="84" rx="22" fill="#FFFFFF" stroke="#E2EBE5"/>
    <text x="532" y="759" font-family="Arial, sans-serif" font-size="14" font-weight="700" fill="#607065">LinkedIn • New</text>
    <text x="532" y="795" font-family="Arial, sans-serif" font-size="24" font-weight="700" fill="#17241C">Demo 11 Fashion House</text>
    <text x="936" y="795" font-family="Arial, sans-serif" font-size="16" fill="#5A6F64">AutoCount POS</text>
  </g>
  <text x="748" y="874" font-family="Arial, sans-serif" font-size="16" font-weight="700" fill="#708178">Page 1 of 8</text>

  <rect x="1170" y="444" width="340" height="478" rx="30" fill="#FFFFFF"/>
  <text x="1204" y="486" font-family="Arial, sans-serif" font-size="14" font-weight="700" letter-spacing="2.4" fill="#2D7A60">EMAIL + EXPORT</text>
  <text x="1204" y="518" font-family="Arial, sans-serif" font-size="30" font-weight="700" fill="#18251D">Review outreach faster</text>
  <rect x="1204" y="548" width="272" height="58" rx="18" fill="#F7FBF8" stroke="#DDE8E0"/>
  <text x="1230" y="584" font-family="Arial, sans-serif" font-size="16" fill="#5B6B62">Sender: sales@company.com</text>
  <rect x="1204" y="628" width="272" height="176" rx="22" fill="#F7FBF8" stroke="#DDE8E0"/>
  <text x="1228" y="659" font-family="Arial, sans-serif" font-size="14" font-weight="700" fill="#2D7A60">EDITABLE EMAIL DRAFT</text>
  <text x="1228" y="694" font-family="Arial, sans-serif" font-size="18" font-weight="700" fill="#17241C">AutoCount idea for Demo 12</text>
  <text x="1228" y="730" font-family="Arial, sans-serif" font-size="15" fill="#5A6F64">Hi Melissa, I came across your business...</text>
  <rect x="1204" y="824" width="128" height="44" rx="16" fill="#EAF6EE"/>
  <rect x="1348" y="824" width="128" height="44" rx="16" fill="#F2F6F3"/>
  <text x="1239" y="852" font-family="Arial, sans-serif" font-size="15" font-weight="700" fill="#2C7A61">Export CSV</text>
  <text x="1388" y="852" font-family="Arial, sans-serif" font-size="15" font-weight="700" fill="#42534B">Timeline</text>
</svg>
