<svg width="1600" height="1000" viewBox="0 0 1600 1000" fill="none" xmlns="http://www.w3.org/2000/svg">
  <defs>
    <linearGradient id="bg2" x1="0" y1="0" x2="1600" y2="1000" gradientUnits="userSpaceOnUse">
      <stop stop-color="#EFF1F4"/>
      <stop offset="1" stop-color="#DADFE6"/>
    </linearGradient>
    <filter id="shadow2" x="-20%" y="-20%" width="140%" height="140%">
      <feDropShadow dx="0" dy="18" stdDeviation="24" flood-color="#516170" flood-opacity="0.18"/>
    </filter>
  </defs>
  <rect width="1600" height="1000" fill="url(#bg2)"/>
  <rect x="54" y="36" width="1492" height="928" rx="34" fill="#F8F9FB" filter="url(#shadow2)"/>
  <rect x="54" y="36" width="240" height="928" rx="34" fill="#15222E"/>
  <text x="92" y="88" font-family="Arial, sans-serif" font-size="16" font-weight="700" letter-spacing="3" fill="#95D1B0">SALES CRM</text>
  <text x="92" y="126" font-family="Arial, sans-serif" font-size="30" font-weight="700" fill="#FFFFFF">Lead Generator</text>
  <g font-family="Arial, sans-serif" font-size="18" fill="#B7C2CC">
    <text x="92" y="194">Dashboard</text>
    <text x="92" y="244">Lead Queue</text>
    <text x="92" y="294">Email Activity</text>
    <text x="92" y="344">Export Center</text>
    <text x="92" y="394">Timeline</text>
  </g>
  <rect x="78" y="220" width="190" height="42" rx="16" fill="#243646"/>
  <text x="110" y="247" font-family="Arial, sans-serif" font-size="18" font-weight="700" fill="#FFFFFF">Lead Queue</text>

  <rect x="324" y="68" width="1186" height="78" rx="24" fill="#FFFFFF"/>
  <text x="360" y="116" font-family="Arial, sans-serif" font-size="34" font-weight="700" fill="#1A2630">Operational Sales Pipeline</text>
  <rect x="1310" y="86" width="82" height="44" rx="16" fill="#EFF3F6" stroke="#D9E0E8"/>
  <text x="1332" y="113" font-family="Arial, sans-serif" font-size="16" font-weight="700" fill="#33424F">Filter</text>
  <rect x="1404" y="86" width="82" height="44" rx="16" fill="#203646"/>
  <text x="1428" y="113" font-family="Arial, sans-serif" font-size="16" font-weight="700" fill="#FFFFFF">Login</text>

  <rect x="324" y="168" width="1186" height="112" rx="28" fill="#203646"/>
  <text x="356" y="208" font-family="Arial, sans-serif" font-size="14" font-weight="700" letter-spacing="2.5" fill="#8FBDA5">LIVE SNAPSHOT</text>
  <g>
    <rect x="356" y="224" width="200" height="38" rx="16" fill="#2B4355"/>
    <rect x="576" y="224" width="200" height="38" rx="16" fill="#2B4355"/>
    <rect x="796" y="224" width="200" height="38" rx="16" fill="#2B4355"/>
    <rect x="1016" y="224" width="200" height="38" rx="16" fill="#2B4355"/>
    <rect x="1236" y="224" width="200" height="38" rx="16" fill="#2B4355"/>
  </g>
  <g font-family="Arial, sans-serif" fill="#FFFFFF">
    <text x="392" y="249" font-size="14" font-weight="700">New Leads 46</text>
    <text x="615" y="249" font-size="14" font-weight="700">Qualified 62</text>
    <text x="836" y="249" font-size="14" font-weight="700">Sent 39</text>
    <text x="1062" y="249" font-size="14" font-weight="700">CRM Logged 18</text>
    <text x="1276" y="249" font-size="14" font-weight="700">Priority 84</text>
  </g>

  <rect x="324" y="304" width="420" height="620" rx="28" fill="#FFFFFF"/>
  <text x="356" y="346" font-family="Arial, sans-serif" font-size="14" font-weight="700" letter-spacing="2.4" fill="#2B7A60">LEAD INTAKE</text>
  <text x="356" y="378" font-family="Arial, sans-serif" font-size="30" font-weight="700" fill="#18242D">Fast capture panel</text>
  <g fill="#F6F8FA" stroke="#DEE4EB">
    <rect x="356" y="408" width="356" height="56" rx="16"/>
    <rect x="356" y="480" width="356" height="56" rx="16"/>
    <rect x="356" y="552" width="356" height="56" rx="16"/>
    <rect x="356" y="624" width="356" height="56" rx="16"/>
    <rect x="356" y="696" width="356" height="92" rx="16"/>
  </g>
  <rect x="356" y="820" width="356" height="50" rx="16" fill="#203646"/>
  <text x="486" y="852" font-family="Arial, sans-serif" font-size="16" font-weight="700" fill="#FFFFFF">Save Lead</text>

  <rect x="768" y="304" width="742" height="620" rx="28" fill="#FFFFFF"/>
  <text x="800" y="346" font-family="Arial, sans-serif" font-size="14" font-weight="700" letter-spacing="2.4" fill="#2B7A60">WORKSPACE</text>
  <text x="800" y="378" font-family="Arial, sans-serif" font-size="30" font-weight="700" fill="#18242D">Dense pipeline operations</text>
  <rect x="800" y="408" width="678" height="54" rx="16" fill="#F6F8FA" stroke="#DEE4EB"/>
  <text x="828" y="442" font-family="Arial, sans-serif" font-size="16" fill="#64727F">Search lead, region, source, or product recommendation</text>

  <g>
    <rect x="800" y="490" width="678" height="94" rx="20" fill="#F4FAF6" stroke="#DDE9E1"/>
    <text x="824" y="520" font-family="Arial, sans-serif" font-size="13" font-weight="700" fill="#2B7A60">HIGH PRIORITY • SENT • CRM LOGGED</text>
    <text x="824" y="562" font-family="Arial, sans-serif" font-size="24" font-weight="700" fill="#16212A">Demo 12 Precision Works</text>
    <text x="824" y="590" font-family="Arial, sans-serif" font-size="15" fill="#61707C">Kajang • Manual research • AutoCount Accounting</text>
    <rect x="1338" y="520" width="112" height="34" rx="14" fill="#FFFFFF"/>
    <text x="1367" y="542" font-family="Arial, sans-serif" font-size="14" font-weight="700" fill="#30424E">Open Lead</text>
  </g>
  <g>
    <rect x="800" y="604" width="678" height="94" rx="20" fill="#FFFFFF" stroke="#E1E7ED"/>
    <text x="824" y="634" font-family="Arial, sans-serif" font-size="13" font-weight="700" fill="#687887">NEW • GOOGLE MAPS</text>
    <text x="824" y="676" font-family="Arial, sans-serif" font-size="24" font-weight="700" fill="#16212A">Demo 11 Fashion House</text>
    <text x="824" y="704" font-family="Arial, sans-serif" font-size="15" fill="#61707C">Kuala Lumpur • AutoCount POS</text>
  </g>
  <g>
    <rect x="800" y="718" width="678" height="94" rx="20" fill="#FFFFFF" stroke="#E1E7ED"/>
    <text x="824" y="748" font-family="Arial, sans-serif" font-size="13" font-weight="700" fill="#687887">NEW • LINKEDIN</text>
    <text x="824" y="790" font-family="Arial, sans-serif" font-size="24" font-weight="700" fill="#16212A">Demo 10 Fresh Hub</text>
    <text x="824" y="818" font-family="Arial, sans-serif" font-size="15" fill="#61707C">Klang • Cubehous WMS System</text>
  </g>
  <rect x="800" y="840" width="120" height="44" rx="16" fill="#EFF3F6" stroke="#DCE3EA"/>
  <text x="833" y="868" font-family="Arial, sans-serif" font-size="16" font-weight="700" fill="#33424F">Previous</text>
  <text x="1080" y="868" font-family="Arial, sans-serif" font-size="16" font-weight="700" fill="#778590">Page 1 of 8</text>
  <rect x="1358" y="840" width="120" height="44" rx="16" fill="#203646"/>
  <text x="1402" y="868" font-family="Arial, sans-serif" font-size="16" font-weight="700" fill="#FFFFFF">Next</text>
</svg>
